<svg width="24px" height="24px" viewBox="0 0 24 24" version="1.1" xmlns="http://www.w3.org/2000/svg" xmlns:xlink="http://www.w3.org/1999/xlink" class="web-navigation__nav-icon" aria-hidden="true"><title>Asset/Sidebar/sidebar_Albums</title><g id="Asset/Sidebar/sidebar_Albums" stroke="none" stroke-width="1" fill-rule="evenodd" fill-opacity="0.95"><path d="M15.4774266,3.93717949 C15.4334086,3.32692308 15.0812641,3 14.4063205,3 L9.43227991,3 C8.75733634,3 8.40519187,3.32692308 8.36117381,3.93717949 L15.4774266,3.93717949 Z M16.7172686,5.94957265 C16.6072235,5.2957265 16.2917607,4.92521368 15.5581264,4.92521368 L8.2217833,4.92521368 C7.48081264,4.92521368 7.16534989,5.2957265 7.05530474,5.94957265 L16.7172686,5.94957265 Z M16.4164786,20 C17.729684,20 18.5,19.2444444 18.5,17.7478632 L18.5,9.37863248 C18.5,7.88205128 17.7223476,7.12649573 16.1963883,7.12649573 L7.80361174,7.12649573 C6.27031603,7.12649573 5.5,7.87478632 5.5,9.37863248 L5.5,17.7478632 C5.5,19.2444444 6.27031603,20 7.80361174,20 L16.4164786,20 Z M16.3944695,18.8303419 L7.81828442,18.8303419 C7.08465011,18.8303419 6.68115124,18.4380342 6.68115124,17.6824786 L6.68115124,9.43675214 C6.68115124,8.68119658 7.08465011,8.29615385 7.81828442,8.29615385 L16.1743792,8.29615385 C16.9006772,8.29615385 17.3188488,8.68119658 17.3188488,9.43675214 L17.3188488,17.6824786 C17.3188488,18.4380342 16.9006772,18.8303419 16.3944695,18.8303419 Z" id="albums" fill-rule="nonzero"></path></g></svg>
