<svg width="24px" height="24px" viewBox="0 0 24 24" version="1.1" xmlns="http://www.w3.org/2000/svg" xmlns:xlink="http://www.w3.org/1999/xlink" class="web-navigation__nav-icon" aria-hidden="true"><title>Asset/Sidebar/sidebar_RecentlyAdded</title><g id="Asset/Sidebar/sidebar_RecentlyAdded" stroke="none" stroke-width="1" fill-rule="evenodd" fill-opacity="0.95"><path d="M12,20 C16.3764706,20 20,16.3686275 20,12 C20,7.62352941 16.3686275,4 11.9921569,4 C7.62352941,4 4,7.62352941 4,12 C4,16.3686275 7.63137255,20 12,20 Z M12,18.6666667 C8.29803922,18.6666667 5.34117647,15.7019608 5.34117647,12 C5.34117647,8.29803922 8.29019608,5.33333333 11.9921569,5.33333333 C15.6941176,5.33333333 18.6588235,8.29803922 18.6666822,12 C18.6745098,15.7019608 15.7019608,18.6666667 12,18.6666667 Z M11.9921569,12.8470588 C12.2980392,12.8470588 12.5411765,12.6117647 12.5411765,12.2980392 L12.5411765,7.01176471 C12.5411765,6.70588235 12.2980392,6.47058824 11.9921569,6.47058824 C11.6862745,6.47058824 11.4509804,6.70588235 11.4509804,7.01176471 L11.4509804,11.7568627 L7.89803922,11.7568627 C7.58431373,11.7568627 7.34901961,11.9921569 7.34901961,12.2980392 C7.34901961,12.6117647 7.58431373,12.8470588 7.89803922,12.8470588 L11.9921569,12.8470588 Z" id="clock" fill-rule="nonzero"></path></g></svg>
