<svg width="24px" height="24px" viewBox="0 0 24 24" version="1.1" xmlns="http://www.w3.org/2000/svg" xmlns:xlink="http://www.w3.org/1999/xlink" class="web-navigation__nav-icon" aria-hidden="true"><title>Asset/Sidebar/sidebar_Songs</title><g id="Asset/Sidebar/sidebar_Songs" stroke="none" stroke-width="1" fill-rule="evenodd" fill-opacity="0.95"><path d="M9.73230468,19.2412109 C10.8089648,19.2412109 12.420293,18.4501953 12.420293,16.3188477 L12.420293,9.6171875 C12.420293,9.22900391 12.4935352,9.1484375 12.8377734,9.07519531 L16.1849414,8.34277344 C16.4339648,8.29150391 16.5877734,8.10107422 16.5877734,7.859375 L16.5877734,5.10546875 C16.5877734,4.71728516 16.272832,4.46826172 15.8992969,4.54150391 L12.1346484,5.36181641 C11.6658984,5.46435547 11.4095508,5.72070312 11.4095508,6.13085938 L11.4241992,14.2753906 C11.4608203,14.6342773 11.2923633,14.8686523 10.9700977,14.9345703 L9.80554687,15.1762695 C8.34070312,15.4838867 7.65222656,16.230957 7.65222656,17.3369141 C7.65222656,18.4575195 8.51648437,19.2412109 9.73230468,19.2412109 Z" id="note" fill-rule="nonzero"></path></g></svg>
